<?xml version="1.0" encoding="utf-8"?>
<!-- Generator: Adobe Illustrator 24.0.3, SVG Export Plug-In . SVG Version: 6.00 Build 0)  -->
<svg version="1.1" id="Layer_1" xmlns="http://www.w3.org/2000/svg" xmlns:xlink="http://www.w3.org/1999/xlink" x="0px" y="0px"
	 viewBox="0 0 300 300" style="enable-background:new 0 0 300 300;" xml:space="preserve">
<style type="text/css">
	.st0{fill:#648C0F;}
	.st1{fill:#86C61F;}
</style>
<g>
	<path class="st0" d="M57.7,190.9c0,0-17.2,10.4-48.9,56.5c-5,7.3-8.3,6.5-8.3,6.5S2,265,18.3,261.7c0,0,23-54.6,47.1-65.5
		L57.7,190.9z"/>
	<path class="st1" d="M35.2,219c0,0,10.4-149.4,131.7-145.3c100.3,3.1,132.6-35.9,132.6-35.9S300.5,249.9,35.2,219"/>
	<path class="st0" d="M49.7,204.6c0,0,50.1-75.7,109.3-81.5c34.9-3,68.4-15.4,97-35.7c-26.3,28.9-62.3,47.1-101.1,51.2
		c-55.2,5.5-105.6,66-105.6,66"/>
</g>
</svg>
