<?xml version="1.0" encoding="UTF-8"?>
<svg xmlns="http://www.w3.org/2000/svg" xmlns:xlink="http://www.w3.org/1999/xlink" width="128px" height="160px" viewBox="0 0 128 160" version="1.1">
<defs>
<linearGradient id="linear0" gradientUnits="userSpaceOnUse" x1="0" y1="0" x2="1" y2="0" gradientTransform="matrix(118.99717,-114.914235,114.914235,118.99717,-49.308502,81.040844)">
<stop offset="0" style="stop-color:rgb(36.078431%,78.431373%,72.54902%);stop-opacity:1;"/>
<stop offset="1" style="stop-color:rgb(28.235294%,63.137255%,87.058824%);stop-opacity:1;"/>
</linearGradient>
<linearGradient id="linear1" gradientUnits="userSpaceOnUse" x1="0" y1="0" x2="1" y2="0" gradientTransform="matrix(118.99717,-114.914235,114.914235,118.99717,26.425629,159.44418)">
<stop offset="0" style="stop-color:rgb(36.078431%,78.431373%,72.54902%);stop-opacity:1;"/>
<stop offset="1" style="stop-color:rgb(28.235294%,63.137255%,87.058824%);stop-opacity:1;"/>
</linearGradient>
</defs>
<g id="surface1">
<path style=" stroke:none;fill-rule:nonzero;fill:url(#linear0);" d="M 1.480469 69.816406 C 1.089844 92.722656 10.785156 110.359375 32.917969 126.980469 C 42.546875 134.207031 78.074219 156.390625 80.167969 157.585938 L 80.453125 157.75 L 85.644531 157.75 L 85.878906 157.613281 C 87.3125 156.804688 93.839844 153.074219 97.652344 150.898438 C 98.90625 150.183594 98.929688 148.375 97.703125 147.617188 L 96.730469 147.03125 C 86.207031 140.503906 65.539062 127.445312 45.449219 113.222656 C 29.277344 101.789062 20.160156 86.085938 20.445312 70.132812 C 20.863281 45.921875 40.878906 26.554688 65.066406 26.988281 C 89.726562 27.410156 108.707031 46.394531 108.300781 70.199219 C 108.1875 76.488281 106.351562 84.015625 103.5 89.863281 C 103.136719 90.621094 102.746094 91.3125 102.335938 92.046875 L 101.675781 93.253906 C 101.1875 94.15625 101.488281 95.273438 102.371094 95.804688 C 105.210938 97.496094 111.128906 101 113.246094 102.175781 L 114.46875 102.914062 C 115.289062 103.402344 116.355469 103.214844 116.953125 102.46875 L 117.515625 101.75 C 123.242188 94.09375 127.0625 81.847656 127.257812 70.53125 C 127.851562 36.085938 100.675781 8.632812 65.398438 8.023438 C 65.03125 8.015625 64.660156 8.015625 64.292969 8.015625 C 30.140625 8.015625 2.074219 35.507812 1.480469 69.816406 "/>
<path style=" stroke:none;fill-rule:nonzero;fill:url(#linear1);" d="M 91.011719 105.605469 L 90.066406 106.335938 C 86.921875 108.78125 81.34375 112.429688 76.257812 115.265625 C 75.679688 115.574219 75.609375 116.445312 76.046875 116.75 C 77.320312 117.628906 81.472656 120.105469 84.007812 121.636719 C 86.035156 122.859375 89.328125 124.953125 90.148438 125.53125 C 91.0625 126.175781 91.746094 126.183594 92.765625 125.636719 C 96.570312 123.601562 104.464844 118.304688 107.421875 115.925781 C 108.144531 115.339844 107.949219 114.5 107.394531 114.132812 C 106.320312 113.441406 95.835938 107.09375 94.058594 106.027344 L 93.179688 105.480469 C 92.871094 105.300781 92.527344 105.203125 92.175781 105.203125 C 91.769531 105.203125 91.355469 105.335938 91.011719 105.605469 "/>
</g>
</svg>
