<?xml version="1.0" encoding="utf-8"?>
<!-- Generator: Adobe Illustrator 22.1.0, SVG Export Plug-In . SVG Version: 6.00 Build 0)  -->
<svg version="1.1" id="Layer_1" xmlns="http://www.w3.org/2000/svg" xmlns:xlink="http://www.w3.org/1999/xlink" x="0px" y="0px"
	 width="300px" height="300px" viewBox="0 0 300 300" style="enable-background:new 0 0 300 300;" xml:space="preserve">
<style type="text/css">
	.st0{fill:#45B9C9;}
	.st1{fill:#FFFFFF;}
</style>
<g>
	<path class="st0" d="M247.5,300H52.5C23.3,300,0,276.7,0,247.5V52.5C0,23.3,23.3,0,52.5,0h194.9C276.7,0,300,23.3,300,52.5v194.9
		C300,276.7,276.7,300,247.5,300z"/>
	<path class="st1" d="M95.7,242.8c10.5,11.7,24.5,18.7,39.7,18.7c29.2,0,52.5-23.3,52.5-52.5v-87.5c0-5.8-4.7-9.3-9.3-9.3
		c-5.8,0-9.3,4.7-9.3,9.3v43.2c0,2.3-2.3,4.7-4.7,4.7c-2.3,0-4.7-2.3-4.7-4.7v-77c0-5.8-4.7-9.3-9.3-9.3c-5.8-1.2-10.5,3.5-10.5,9.3
		v68.9c0,2.3-2.3,4.7-4.7,4.7c-2.3,0-4.7-2.3-4.7-4.7V75.9c0-5.8-4.7-9.3-9.3-9.3c-4.7-1.2-9.3,3.5-9.3,9.3v80.5
		c0,2.3-2.3,4.7-4.7,4.7c-2.3,0-4.7-2.3-4.7-4.7V87.5c0-5.8-3.5-10.5-9.3-10.5c-5.8,0-9.3,4.7-9.3,10.5v72.4l35,42
		c1.2,1.2,2.3,1.2,3.5,1.2s2.3,0,3.5-1.2l11.7-14c3.5-4.7,10.5-4.7,15.2-1.2c4.7,3.5,4.7,10.5,1.2,15.2l-26.8,31.5
		c-1.2,1.2-3.5,2.3-4.7,2.3c-2.3,0-3.5-1.2-4.7-2.3l-58.4-70c-3.5-4.7-10.5-4.7-15.2-1.2s-4.7,10.5-1.2,15.2L95.7,242.8L95.7,242.8z
		 M204.3,216c-2.3,3.5-5.8,5.8-9.3,9.3c1.2-4.7,2.3-10.5,2.3-16.3V60.7c0-5.8,4.7-9.3,9.3-9.3c5.8,0,9.3,4.7,9.3,9.3v106.2
		l25.7-30.4c3.5-4.7,10.5-4.7,15.2-1.2c4.7,3.5,4.7,10.5,1.2,15.2L204.3,216L204.3,216z M140.1,71.2V60.7c0-5.8,4.7-9.3,9.3-9.3
		c5.8,0,9.3,4.7,9.3,9.3v10.5c-2.3-2.3-5.8-2.3-9.3-2.3C147.1,68.9,143.6,70,140.1,71.2L140.1,71.2z M169.3,105.1V49
		c0-5.8,4.7-9.3,9.3-9.3s9.3,4.7,9.3,9.3v56c-2.3-2.3-5.8-2.3-9.3-2.3C175.1,102.7,171.6,103.9,169.3,105.1z"/>
</g>
</svg>
