<?xml version="1.0" encoding="UTF-8"?>
<svg xmlns="http://www.w3.org/2000/svg" xmlns:xlink="http://www.w3.org/1999/xlink" width="32px" height="32px" viewBox="0 0 32 32" version="1.1">
<g id="surface1">
<rect x="0" y="0" width="32" height="32" style="fill:rgb(0%,0%,0%);fill-opacity:0;stroke:none;"/>
<path style=" stroke:none;fill-rule:nonzero;fill:rgb(100%,100%,100%);fill-opacity:1;" d="M 18 2.667969 L 18.660156 2.582031 C 18.621094 2.25 18.335938 2 18 2 Z M 14 2.667969 L 14 2 C 13.664062 2 13.378906 2.25 13.339844 2.582031 Z M 18.367188 5.597656 L 17.703125 5.679688 C 17.738281 5.957031 17.945312 6.183594 18.21875 6.246094 Z M 21.683594 6.972656 L 21.328125 7.535156 C 21.5625 7.683594 21.871094 7.667969 22.089844 7.496094 Z M 24.015625 5.15625 L 24.484375 4.6875 C 24.246094 4.449219 23.871094 4.425781 23.605469 4.632812 Z M 26.84375 7.984375 L 27.367188 8.394531 C 27.574219 8.128906 27.550781 7.753906 27.3125 7.515625 Z M 25.027344 10.316406 L 24.503906 9.910156 C 24.332031 10.128906 24.316406 10.4375 24.464844 10.671875 Z M 26.402344 13.632812 L 25.753906 13.78125 C 25.816406 14.054688 26.042969 14.261719 26.320312 14.296875 Z M 29.332031 14 L 30 14 C 30 13.664062 29.75 13.378906 29.414062 13.339844 Z M 29.332031 18 L 29.414062 18.660156 C 29.75 18.621094 30 18.335938 30 18 Z M 26.402344 18.367188 L 26.320312 17.703125 C 26.042969 17.738281 25.816406 17.945312 25.753906 18.21875 Z M 25.027344 21.683594 L 24.464844 21.328125 C 24.316406 21.5625 24.332031 21.871094 24.503906 22.089844 Z M 26.84375 24.015625 L 27.3125 24.484375 C 27.550781 24.246094 27.574219 23.871094 27.367188 23.605469 Z M 24.015625 26.84375 L 23.605469 27.367188 C 23.871094 27.574219 24.246094 27.550781 24.484375 27.3125 Z M 21.683594 25.027344 L 22.089844 24.503906 C 21.871094 24.332031 21.5625 24.316406 21.328125 24.464844 Z M 18.367188 26.402344 L 18.21875 25.753906 C 17.945312 25.816406 17.738281 26.042969 17.703125 26.320312 Z M 18 29.332031 L 18 30 C 18.335938 30 18.621094 29.75 18.660156 29.414062 Z M 14 29.332031 L 13.339844 29.414062 C 13.378906 29.75 13.664062 30 14 30 Z M 13.632812 26.402344 L 14.296875 26.320312 C 14.261719 26.042969 14.054688 25.816406 13.78125 25.753906 Z M 10.316406 25.027344 L 10.671875 24.464844 C 10.4375 24.316406 10.128906 24.332031 9.910156 24.503906 Z M 7.984375 26.84375 L 7.515625 27.3125 C 7.753906 27.550781 8.128906 27.574219 8.394531 27.367188 Z M 5.15625 24.015625 L 4.632812 23.605469 C 4.425781 23.871094 4.449219 24.246094 4.6875 24.484375 Z M 6.972656 21.683594 L 7.496094 22.089844 C 7.667969 21.871094 7.683594 21.5625 7.535156 21.328125 Z M 5.597656 18.367188 L 6.246094 18.21875 C 6.183594 17.945312 5.957031 17.738281 5.679688 17.703125 Z M 2.667969 18 L 2 18 C 2 18.335938 2.25 18.621094 2.582031 18.660156 Z M 2.667969 14 L 2.582031 13.339844 C 2.25 13.378906 2 13.664062 2 14 Z M 5.597656 13.632812 L 5.679688 14.296875 C 5.957031 14.261719 6.183594 14.054688 6.246094 13.78125 Z M 6.972656 10.316406 L 7.535156 10.671875 C 7.683594 10.4375 7.667969 10.128906 7.496094 9.910156 Z M 5.15625 7.984375 L 4.6875 7.515625 C 4.449219 7.753906 4.425781 8.128906 4.632812 8.394531 Z M 7.984375 5.15625 L 8.394531 4.632812 C 8.128906 4.425781 7.753906 4.449219 7.515625 4.6875 Z M 10.316406 6.972656 L 9.910156 7.496094 C 10.128906 7.667969 10.4375 7.683594 10.671875 7.535156 Z M 13.632812 5.597656 L 13.78125 6.246094 C 14.054688 6.183594 14.261719 5.957031 14.296875 5.679688 Z M 18 2 L 14 2 L 14 3.332031 L 18 3.332031 Z M 19.027344 5.515625 L 18.660156 2.582031 L 17.339844 2.75 L 17.703125 5.679688 Z M 22.039062 6.40625 C 20.96875 5.734375 19.78125 5.234375 18.511719 4.945312 L 18.21875 6.246094 C 19.335938 6.5 20.386719 6.941406 21.328125 7.535156 Z M 22.089844 7.496094 L 24.421875 5.683594 L 23.605469 4.632812 L 21.273438 6.445312 Z M 23.542969 5.628906 L 26.371094 8.457031 L 27.3125 7.515625 L 24.484375 4.6875 Z M 26.316406 7.578125 L 24.503906 9.910156 L 25.554688 10.726562 L 27.367188 8.394531 Z M 27.054688 13.488281 C 26.765625 12.21875 26.265625 11.03125 25.59375 9.960938 L 24.464844 10.671875 C 25.058594 11.613281 25.5 12.664062 25.753906 13.78125 Z M 29.414062 13.339844 L 26.484375 12.972656 L 26.320312 14.296875 L 29.25 14.660156 Z M 30 18 L 30 14 L 28.667969 14 L 28.667969 18 Z M 26.484375 19.027344 L 29.414062 18.660156 L 29.25 17.339844 L 26.320312 17.703125 Z M 25.59375 22.039062 C 26.265625 20.96875 26.765625 19.78125 27.054688 18.511719 L 25.753906 18.21875 C 25.5 19.335938 25.058594 20.386719 24.464844 21.328125 Z M 27.367188 23.605469 L 25.554688 21.273438 L 24.503906 22.089844 L 26.316406 24.421875 Z M 24.484375 27.3125 L 27.3125 24.484375 L 26.371094 23.542969 L 23.542969 26.371094 Z M 21.273438 25.554688 L 23.605469 27.367188 L 24.421875 26.316406 L 22.089844 24.503906 Z M 18.511719 27.054688 C 19.78125 26.765625 20.96875 26.265625 22.039062 25.59375 L 21.328125 24.464844 C 20.386719 25.058594 19.335938 25.5 18.21875 25.753906 Z M 18.660156 29.414062 L 19.027344 26.484375 L 17.703125 26.320312 L 17.339844 29.25 Z M 14 30 L 18 30 L 18 28.667969 L 14 28.667969 Z M 12.972656 26.484375 L 13.339844 29.414062 L 14.660156 29.25 L 14.296875 26.320312 Z M 9.960938 25.59375 C 11.03125 26.265625 12.21875 26.765625 13.488281 27.054688 L 13.78125 25.753906 C 12.664062 25.5 11.613281 25.058594 10.671875 24.464844 Z M 8.394531 27.367188 L 10.726562 25.554688 L 9.910156 24.503906 L 7.578125 26.316406 Z M 4.6875 24.484375 L 7.515625 27.3125 L 8.457031 26.371094 L 5.628906 23.542969 Z M 6.445312 21.273438 L 4.632812 23.605469 L 5.683594 24.421875 L 7.496094 22.089844 Z M 4.945312 18.511719 C 5.234375 19.78125 5.734375 20.96875 6.40625 22.039062 L 7.535156 21.328125 C 6.941406 20.386719 6.5 19.335938 6.246094 18.21875 Z M 2.582031 18.660156 L 5.515625 19.027344 L 5.679688 17.703125 L 2.75 17.339844 Z M 2 14 L 2 18 L 3.332031 18 L 3.332031 14 Z M 5.515625 12.972656 L 2.582031 13.339844 L 2.75 14.660156 L 5.679688 14.296875 Z M 6.40625 9.960938 C 5.734375 11.03125 5.234375 12.21875 4.945312 13.488281 L 6.246094 13.78125 C 6.5 12.664062 6.941406 11.613281 7.535156 10.671875 Z M 4.632812 8.394531 L 6.445312 10.726562 L 7.496094 9.910156 L 5.683594 7.578125 Z M 7.515625 4.6875 L 4.6875 7.515625 L 5.628906 8.457031 L 8.457031 5.628906 Z M 10.726562 6.445312 L 8.394531 4.632812 L 7.578125 5.683594 L 9.910156 7.496094 Z M 13.488281 4.945312 C 12.21875 5.234375 11.03125 5.734375 9.960938 6.40625 L 10.671875 7.535156 C 11.613281 6.941406 12.664062 6.5 13.78125 6.246094 Z M 13.339844 2.582031 L 12.972656 5.515625 L 14.296875 5.679688 L 14.660156 2.75 Z M 13.339844 2.582031 "/>
<path style="fill:none;stroke-width:1;stroke-linecap:butt;stroke-linejoin:round;stroke:rgb(100%,100%,100%);stroke-opacity:1;stroke-miterlimit:4;" d="M 15.999023 12 C 15.999023 14.208984 14.208984 15.999023 12 15.999023 C 9.791016 15.999023 8.000977 14.208984 8.000977 12 C 8.000977 9.791016 9.791016 8.000977 12 8.000977 C 14.208984 8.000977 15.999023 9.791016 15.999023 12 Z M 15.999023 12 " transform="matrix(1.333333,0,0,1.333333,0,0)"/>
</g>
</svg>
