<?xml version="1.0" encoding="UTF-8"?>
<svg xmlns="http://www.w3.org/2000/svg" xmlns:xlink="http://www.w3.org/1999/xlink" width="32px" height="32px" viewBox="0 0 32 32" version="1.1">
<g id="surface1">
<path style=" stroke:none;fill-rule:nonzero;fill:rgb(100%,100%,100%);fill-opacity:1;" d="M 14.863281 1.273438 C 14.335938 1.324219 13.261719 1.5 13.226562 1.539062 C 13.210938 1.550781 13.261719 1.5625 13.335938 1.5625 C 13.789062 1.5625 15.226562 1.6875 15.699219 1.773438 C 16.460938 1.898438 17.664062 2.226562 18.363281 2.476562 C 18.835938 2.648438 20.449219 3.375 20.539062 3.449219 C 20.550781 3.460938 20.414062 3.625 20.238281 3.824219 C 20.0625 4.023438 19.789062 4.414062 19.625 4.699219 C 19.398438 5.0625 19.300781 5.199219 19.238281 5.175781 C 18.226562 4.863281 17.085938 4.726562 15.824219 4.761719 C 14.988281 4.789062 13.914062 4.914062 13.824219 4.988281 C 13.8125 5 14.175781 5.023438 14.625 5.050781 C 15.601562 5.085938 16.449219 5.238281 17.375 5.550781 C 18.050781 5.773438 19 6.175781 19 6.238281 C 19 6.261719 18.738281 7.101562 18.425781 8.113281 C 18.101562 9.125 17.851562 9.976562 17.863281 10 C 17.875 10.023438 18.085938 10.136719 18.351562 10.238281 C 19.261719 10.613281 20.1875 11.289062 20.789062 12.039062 C 21.511719 12.9375 21.835938 13.675781 22.136719 15.023438 C 22.148438 15.101562 27.710938 12.164062 28.101562 11.875 C 29.074219 11.125 29.800781 9.835938 30.050781 8.414062 C 30.460938 6.039062 29.25 3.648438 27.074219 2.523438 C 25.636719 1.773438 23.9375 1.699219 22.398438 2.300781 L 22.011719 2.449219 L 21.363281 2.199219 C 20.300781 1.789062 19.300781 1.523438 18.175781 1.363281 C 17.460938 1.25 15.511719 1.210938 14.863281 1.273438 Z M 14.863281 1.273438 "/>
<path style=" stroke:none;fill-rule:nonzero;fill:rgb(100%,100%,100%);fill-opacity:1;" d="M 6.511719 1.9375 C 4.175781 2.386719 2.386719 4.1875 1.960938 6.539062 C 1.875 7.039062 1.886719 8.085938 1.988281 8.574219 C 2.039062 8.800781 2.148438 9.210938 2.25 9.488281 L 2.4375 10 L 2.148438 10.761719 C 1.8125 11.648438 1.5 12.851562 1.351562 13.835938 C 1.273438 14.363281 1.25 14.851562 1.25 15.824219 C 1.25 17.0625 1.289062 17.460938 1.488281 18.5625 L 1.539062 18.789062 L 1.574219 18.476562 C 1.601562 18.300781 1.613281 17.988281 1.625 17.773438 C 1.636719 16.726562 2.023438 14.835938 2.460938 13.664062 C 2.625 13.210938 3.375 11.550781 3.449219 11.449219 C 3.460938 11.4375 3.625 11.574219 3.824219 11.738281 C 4.175781 12.050781 5.011719 12.585938 5.136719 12.601562 C 5.226562 12.601562 5.226562 12.5625 5.0625 13.199219 C 4.8125 14.175781 4.726562 14.988281 4.761719 16.148438 C 4.789062 17.011719 4.914062 18.101562 4.988281 18.1875 C 5 18.199219 5.023438 17.824219 5.050781 17.363281 C 5.085938 16.363281 5.273438 15.414062 5.585938 14.511719 C 5.8125 13.851562 6.1875 13.011719 6.238281 13.011719 C 6.261719 13.011719 7.113281 13.273438 8.125 13.585938 C 9.136719 13.898438 9.988281 14.164062 10.011719 14.148438 C 10.039062 14.148438 10.136719 13.949219 10.226562 13.710938 C 10.988281 11.75 12.824219 10.261719 14.976562 9.875 C 15.050781 9.863281 14.800781 9.3125 13.613281 7.050781 C 12.800781 5.5 12.023438 4.085938 11.886719 3.898438 C 11.210938 3.023438 10.164062 2.363281 8.914062 2.050781 C 8.25 1.863281 7.125 1.824219 6.511719 1.9375 Z M 6.511719 1.9375 "/>
<path style=" stroke:none;fill-rule:nonzero;fill:rgb(100%,100%,100%);fill-opacity:1;" d="M 15.261719 11.023438 C 13.261719 11.335938 11.648438 12.773438 11.125 14.75 C 10.949219 15.398438 10.949219 16.574219 11.125 17.210938 C 11.550781 18.761719 12.625 20 14.050781 20.601562 C 14.75 20.898438 15.175781 20.976562 16.011719 20.976562 C 16.914062 20.976562 17.425781 20.851562 18.210938 20.460938 C 19.476562 19.835938 20.476562 18.625 20.835938 17.238281 C 21 16.636719 21.011719 15.476562 20.875 14.886719 C 20.425781 13.039062 19.023438 11.613281 17.210938 11.148438 C 16.6875 11.011719 15.761719 10.949219 15.261719 11.023438 Z M 16.664062 14.539062 C 17.011719 14.726562 17.210938 14.914062 17.398438 15.25 C 17.550781 15.511719 17.5625 15.625 17.5625 15.988281 C 17.5625 16.363281 17.539062 16.460938 17.398438 16.726562 C 17.085938 17.300781 16.636719 17.5625 15.988281 17.5625 C 15.335938 17.5625 14.886719 17.300781 14.574219 16.726562 C 14.425781 16.460938 14.398438 16.363281 14.414062 15.988281 C 14.414062 15.539062 14.488281 15.335938 14.761719 14.960938 C 14.914062 14.75 15.324219 14.5 15.601562 14.425781 C 15.886719 14.351562 16.398438 14.414062 16.664062 14.539062 Z M 16.664062 14.539062 "/>
<path style=" stroke:none;fill-rule:nonzero;fill:rgb(100%,100%,100%);fill-opacity:1;" d="M 30.386719 13.1875 C 30.449219 13.363281 30.3125 15.125 30.1875 15.824219 C 29.9375 17.210938 29.585938 18.324219 28.914062 19.75 C 28.710938 20.175781 28.539062 20.539062 28.539062 20.550781 C 28.523438 20.5625 28.363281 20.425781 28.164062 20.25 C 27.960938 20.074219 27.574219 19.800781 27.289062 19.636719 C 26.925781 19.414062 26.789062 19.3125 26.8125 19.25 C 27.125 18.238281 27.261719 17.101562 27.226562 15.835938 C 27.199219 15 27.074219 13.925781 27 13.835938 C 26.988281 13.824219 26.960938 14.199219 26.9375 14.664062 C 26.898438 15.664062 26.710938 16.613281 26.398438 17.511719 C 26.175781 18.164062 25.800781 19.011719 25.75 19.011719 C 25.726562 19.011719 24.886719 18.75 23.875 18.4375 C 22.863281 18.113281 22.011719 17.863281 21.988281 17.875 C 21.960938 17.886719 21.851562 18.101562 21.75 18.363281 C 21.375 19.273438 20.699219 20.199219 19.949219 20.800781 C 19.050781 21.523438 18.273438 21.875 16.960938 22.148438 C 16.886719 22.164062 19.851562 27.789062 20.136719 28.148438 C 20.835938 29.050781 22.074219 29.761719 23.414062 30.039062 C 23.925781 30.148438 25.175781 30.136719 25.675781 30.011719 C 27.398438 29.601562 28.75 28.539062 29.5 27 C 29.914062 26.164062 30.023438 25.710938 30.0625 24.773438 C 30.101562 23.835938 30.039062 23.425781 29.75 22.585938 L 29.539062 21.988281 L 29.8125 21.300781 C 30.710938 19.023438 30.976562 16.351562 30.5625 13.824219 C 30.511719 13.523438 30.449219 13.238281 30.414062 13.1875 C 30.363281 13.101562 30.363281 13.101562 30.386719 13.1875 Z M 30.386719 13.1875 "/>
<path style=" stroke:none;fill-rule:nonzero;fill:rgb(100%,100%,100%);fill-opacity:1;" d="M 7.449219 18.164062 C 6.136719 18.851562 4.8125 19.539062 4.511719 19.699219 C 3.101562 20.460938 2.101562 22.0625 1.898438 23.863281 C 1.625 26.210938 2.875 28.460938 5 29.5 C 5.851562 29.914062 6.289062 30.023438 7.261719 30.0625 C 8.164062 30.101562 8.726562 30.011719 9.414062 29.761719 C 10 29.539062 10 29.539062 10.726562 29.824219 C 13 30.726562 15.675781 30.988281 18.199219 30.574219 C 18.5 30.523438 18.789062 30.460938 18.835938 30.425781 C 18.898438 30.386719 18.886719 30.375 18.789062 30.398438 C 18.574219 30.4375 16.898438 30.324219 16.300781 30.226562 C 15.5 30.085938 14.335938 29.789062 13.648438 29.523438 C 13.148438 29.335938 11.550781 28.625 11.460938 28.550781 C 11.449219 28.539062 11.523438 28.4375 11.636719 28.3125 C 11.914062 28.023438 12.25 27.539062 12.488281 27.125 C 12.625 26.886719 12.699219 26.800781 12.773438 26.824219 C 13.800781 27.136719 14.925781 27.273438 16.1875 27.25 C 17.023438 27.226562 18.101562 27.101562 18.1875 27.023438 C 18.199219 27.011719 17.835938 26.988281 17.386719 26.960938 C 16.414062 26.925781 15.5625 26.773438 14.636719 26.460938 C 13.949219 26.238281 13.011719 25.835938 13.011719 25.773438 C 13.011719 25.75 13.273438 24.914062 13.585938 23.886719 C 13.914062 22.875 14.164062 22.023438 14.148438 22 C 14.136719 21.976562 13.9375 21.875 13.710938 21.773438 C 11.75 21.011719 10.261719 19.1875 9.875 17.023438 C 9.851562 16.9375 9.375 17.164062 7.449219 18.164062 Z M 7.449219 18.164062 "/>
</g>
</svg>
