<?xml version="1.0" encoding="UTF-8"?>
<svg xmlns="http://www.w3.org/2000/svg" xmlns:xlink="http://www.w3.org/1999/xlink" width="32px" height="32px" viewBox="0 0 32 32" version="1.1">
<g id="surface1">
<path style=" stroke:none;fill-rule:evenodd;fill:#ffffff;fill-opacity:1;" d="M 16 28 C 22.628906 28 28 22.628906 28 16 C 28 9.371094 22.628906 4 16 4 C 9.371094 4 4 9.371094 4 16 C 4 22.628906 9.371094 28 16 28 Z M 16 29.332031 C 23.363281 29.332031 29.332031 23.363281 29.332031 16 C 29.332031 8.636719 23.363281 2.667969 16 2.667969 C 8.636719 2.667969 2.667969 8.636719 2.667969 16 C 2.667969 23.363281 8.636719 29.332031 16 29.332031 Z M 16.667969 18.667969 L 16.667969 8 C 16.667969 7.632812 16.367188 7.332031 16 7.332031 C 15.632812 7.332031 15.332031 7.632812 15.332031 8 L 15.332031 18.667969 C 15.332031 19.035156 15.632812 19.332031 16 19.332031 C 16.367188 19.332031 16.667969 19.035156 16.667969 18.667969 Z M 16 6 C 14.894531 6 14 6.894531 14 8 L 14 18.667969 C 14 19.769531 14.894531 20.667969 16 20.667969 C 17.105469 20.667969 18 19.769531 18 18.667969 L 18 8 C 18 6.894531 17.105469 6 16 6 Z M 16 24.667969 C 15.632812 24.667969 15.332031 24.367188 15.332031 24 C 15.332031 23.632812 15.632812 23.332031 16 23.332031 C 16.367188 23.332031 16.667969 23.632812 16.667969 24 C 16.667969 24.367188 16.367188 24.667969 16 24.667969 Z M 14 24 C 14 22.894531 14.894531 22 16 22 C 17.105469 22 18 22.894531 18 24 C 18 25.105469 17.105469 26 16 26 C 14.894531 26 14 25.105469 14 24 Z M 14 24 "/>
</g>
</svg>
