<?xml version="1.0" encoding="UTF-8"?>
<svg xmlns="http://www.w3.org/2000/svg" xmlns:xlink="http://www.w3.org/1999/xlink" width="32px" height="32px" viewBox="0 0 32 32" version="1.1">
<g id="surface1">
<path style=" stroke:none;fill-rule:nonzero;fill:#ffffff;fill-opacity:1;" d="M 31.25 7.070312 C 31.101562 6.601562 30.695312 6.257812 30.199219 6.1875 L 26.75 5.695312 L 25.210938 2.636719 C 24.992188 2.199219 24.542969 1.925781 24.054688 1.925781 C 23.570312 1.925781 23.117188 2.199219 22.898438 2.636719 L 21.363281 5.695312 L 17.914062 6.1875 C 17.425781 6.257812 17.019531 6.601562 16.863281 7.070312 C 16.710938 7.539062 16.84375 8.054688 17.199219 8.398438 L 19.679688 10.769531 L 19.09375 14.105469 C 19.007812 14.585938 19.207031 15.082031 19.601562 15.367188 C 19.992188 15.664062 20.519531 15.699219 20.957031 15.476562 L 24.050781 13.882812 L 27.144531 15.476562 C 27.332031 15.570312 27.53125 15.617188 27.738281 15.617188 C 28.007812 15.617188 28.273438 15.53125 28.5 15.367188 C 28.894531 15.082031 29.09375 14.585938 29.007812 14.105469 L 28.417969 10.769531 L 30.898438 8.398438 C 31.269531 8.054688 31.398438 7.539062 31.25 7.070312 Z M 26.148438 9.375 C 25.835938 9.675781 25.695312 10.105469 25.769531 10.53125 L 26.023438 11.988281 L 24.648438 11.28125 C 24.28125 11.09375 23.835938 11.09375 23.46875 11.28125 L 22.09375 11.988281 L 22.351562 10.53125 C 22.425781 10.105469 22.28125 9.675781 21.96875 9.375 L 20.914062 8.363281 L 22.398438 8.148438 C 22.820312 8.085938 23.179688 7.832031 23.367188 7.449219 L 24.054688 6.082031 L 24.742188 7.449219 C 24.929688 7.824219 25.292969 8.085938 25.710938 8.148438 L 27.199219 8.363281 Z M 26.148438 9.375 "/>
<path style=" stroke:none;fill-rule:nonzero;fill:#ffffff;fill-opacity:1;" d="M 27.625 22.5625 C 26.695312 22.773438 25.730469 22.882812 24.769531 22.882812 C 17.65625 22.882812 11.867188 17.09375 11.867188 9.988281 C 11.867188 7.375 12.644531 4.863281 14.113281 2.71875 C 14.414062 2.28125 14.414062 1.699219 14.113281 1.257812 C 13.8125 0.8125 13.273438 0.601562 12.75 0.71875 C 9.375 1.480469 6.3125 3.386719 4.125 6.09375 C 1.914062 8.832031 0.6875 12.292969 0.6875 15.824219 C 0.6875 19.960938 2.300781 23.851562 5.226562 26.773438 C 8.148438 29.699219 12.042969 31.3125 16.179688 31.3125 C 21.300781 31.3125 26.082031 28.789062 28.980469 24.554688 C 29.28125 24.117188 29.28125 23.539062 28.980469 23.09375 C 28.679688 22.65625 28.144531 22.445312 27.625 22.5625 Z M 16.179688 28.71875 C 9.070312 28.71875 3.28125 22.929688 3.28125 15.824219 C 3.28125 10.9375 6.113281 6.507812 10.332031 4.335938 C 9.632812 6.125 9.269531 8.03125 9.269531 9.988281 C 9.269531 14.125 10.882812 18.011719 13.804688 20.9375 C 16.726562 23.855469 20.605469 25.46875 24.738281 25.476562 C 22.40625 27.542969 19.375 28.71875 16.179688 28.71875 Z M 16.179688 28.71875 "/>
</g>
</svg>
