<svg xmlns="http://www.w3.org/2000/svg" width="442" height="312" viewBox="0 0 442 312" fill="none"><mask id="mask0" maskUnits="userSpaceOnUse" x="0" y="0" width="442" height="312"><path fill-rule="evenodd" clip-rule="evenodd" d="M0 0H442V312H0V0Z" fill="white"></path></mask><g mask="url(#mask0)"><path fill-rule="evenodd" clip-rule="evenodd" d="M0.126999 311.92H441.841V36.8521H0.126999V311.92Z" fill="white"></path><path fill-rule="evenodd" clip-rule="evenodd" d="M135.206 136.649H141.548V92.6499H135.206V136.649Z" fill="#F0EDFF"></path><path fill-rule="evenodd" clip-rule="evenodd" d="M144.242 136.649H150.585V105.488H144.242V136.649Z" fill="#F0EDFF"></path><path fill-rule="evenodd" clip-rule="evenodd" d="M153.278 153.839H159.62V122.114H153.278V153.839Z" fill="#F0EDFF"></path><path fill-rule="evenodd" clip-rule="evenodd" d="M162.314 170.274H168.656V127.435H162.314V170.274Z" fill="#F0EDFF"></path><path fill-rule="evenodd" clip-rule="evenodd" d="M189.421 122.114H195.764V102.777H189.421V122.114Z" fill="#F0EDFF"></path><path fill-rule="evenodd" clip-rule="evenodd" d="M198.457 129.435H204.8V108.081H198.457V129.435Z" fill="#F0EDFF"></path><path fill-rule="evenodd" clip-rule="evenodd" d="M207.493 146.062H213.834V114.65H207.493V146.062Z" fill="#F0EDFF"></path><path fill-rule="evenodd" clip-rule="evenodd" d="M234.599 136.649H240.942V119.673H234.599V136.649Z" fill="#F0EDFF"></path><path fill-rule="evenodd" clip-rule="evenodd" d="M180.385 136.649H186.728V85.2529H180.385V136.649Z" fill="#F8F7FF"></path><path fill-rule="evenodd" clip-rule="evenodd" d="M126.171 143.01H132.513V78.1191H126.171V143.01Z" fill="#F8F7FF"></path><path fill-rule="evenodd" clip-rule="evenodd" d="M117.135 110.951H123.477V97.8809H117.135V110.951Z" fill="#F8F7FF"></path><path fill-rule="evenodd" clip-rule="evenodd" d="M108.099 123.363H114.441V106.869H108.099V123.363Z" fill="#F8F7FF"></path><path fill-rule="evenodd" clip-rule="evenodd" d="M99.063 127.435H105.405V112.445H99.063V127.435Z" fill="#F8F7FF"></path><path fill-rule="evenodd" clip-rule="evenodd" d="M80.992 121.069H87.334V113.933H80.992V121.069Z" fill="#F8F7FF"></path><path fill-rule="evenodd" clip-rule="evenodd" d="M171.35 147.89H177.692V116.317H171.35V147.89Z" fill="#F8F7FF"></path><path fill-rule="evenodd" clip-rule="evenodd" d="M216.529 136.649H222.871V97.8809H216.529V136.649Z" fill="#F8F7FF"></path><path fill-rule="evenodd" clip-rule="evenodd" d="M225.563 125.434H231.906V88.3042H225.563V125.434Z" fill="#F8F7FF"></path><path fill-rule="evenodd" clip-rule="evenodd" d="M90.028 116.461H96.37V103.242H90.028V116.461Z" fill="#F8F7FF"></path><path fill-rule="evenodd" clip-rule="evenodd" d="M243.635 110.952H249.978V99.9102H243.635V110.952Z" fill="#F8F7FF"></path><path fill-rule="evenodd" clip-rule="evenodd" d="M176.511 266.081C175.663 262.211 174.136 258.601 172.07 255.369L177.905 249.543L167.78 239.426L161.953 245.252C158.721 243.188 155.113 241.668 151.251 240.812V232.577H136.937V240.812C133.075 241.668 129.466 243.188 126.233 245.252L120.407 239.426L110.291 249.543L116.117 255.369C114.052 258.601 112.524 262.211 111.676 266.081H103.441V280.386H131.488C130.28 278.279 129.6 275.835 129.6 273.233C129.6 265.225 136.089 258.735 144.098 258.735C152.099 258.735 158.587 265.225 158.587 273.233C158.587 275.835 157.907 278.279 156.698 280.386H184.747V266.081H176.511" fill="#E9E6FF"></path><path fill-rule="evenodd" clip-rule="evenodd" d="M104.051 276.548H102.831V265.471H111.189C112.018 261.935 113.413 258.57 115.341 255.456L109.428 249.543L120.407 238.563L126.321 244.477C128.508 243.123 130.849 242.021 133.287 241.197L133.677 242.353C131.179 243.198 128.785 244.347 126.562 245.768L126.149 246.031L120.407 240.289L111.154 249.543L116.895 255.284L116.631 255.697C114.556 258.945 113.089 262.482 112.272 266.212L112.167 266.692H104.051V276.548ZM158.8 276.704L157.611 276.424C157.854 275.388 157.978 274.314 157.978 273.233C157.978 265.576 151.751 259.346 144.098 259.346C137.528 259.346 131.806 264.009 130.492 270.433L129.296 270.188C130.726 263.198 136.951 258.125 144.098 258.125C152.424 258.125 159.198 264.903 159.198 273.233C159.198 274.408 159.063 275.576 158.8 276.704V276.704Z" fill="#CCC2FF"></path><path fill-rule="evenodd" clip-rule="evenodd" d="M344.947 270.641C344.369 268.003 343.328 265.545 341.921 263.342L345.896 259.373L338.998 252.48L335.029 256.45C332.828 255.044 330.367 254.009 327.736 253.424V247.814H317.984V253.424C315.355 254.009 312.894 255.044 310.693 256.45L306.724 252.48L299.831 259.373L303.801 263.342C302.393 265.545 301.352 268.003 300.775 270.641H295.164V280.386H314.273C313.449 278.951 312.986 277.285 312.986 275.513C312.986 270.056 317.407 265.636 322.864 265.636C328.315 265.636 332.736 270.056 332.736 275.513C332.736 277.285 332.272 278.951 331.449 280.386H350.558V270.641H344.947" fill="#F2F0FF"></path><path fill-rule="evenodd" clip-rule="evenodd" d="M332.903 278.542L331.735 278.191C331.994 277.328 332.125 276.427 332.125 275.513C332.125 270.404 327.97 266.246 322.864 266.246C318.994 266.246 315.498 268.684 314.164 272.312L313.018 271.892C314.529 267.784 318.485 265.026 322.864 265.026C328.643 265.026 333.346 269.73 333.346 275.513C333.346 276.548 333.197 277.567 332.903 278.542ZM294.554 280.391V270.03H300.289C300.852 267.705 301.771 265.489 303.026 263.43L298.969 259.373L306.724 251.619L310.781 255.675C312.828 254.428 315.041 253.509 317.375 252.939V247.203H328.347V252.939C330.681 253.509 332.894 254.428 334.94 255.675L338.998 251.619L346.759 259.373L342.695 263.43C343.951 265.489 344.87 267.705 345.433 270.03H351.167V280.386H349.947V271.25H344.456L344.35 270.77C343.8 268.254 342.809 265.864 341.407 263.67L341.142 263.257L345.032 259.373L338.998 253.345L335.114 257.229L334.7 256.965C332.521 255.572 330.135 254.581 327.605 254.021L327.126 253.914V248.424H318.595V253.914L318.117 254.021C315.587 254.581 313.201 255.572 311.022 256.965L310.608 257.229L306.724 253.345L300.694 259.373L304.578 263.258L304.315 263.67C302.913 265.864 301.924 268.252 301.372 270.77L301.266 271.25H295.775V280.391H294.554V280.391Z" fill="#DDD6FF"></path><path fill-rule="evenodd" clip-rule="evenodd" d="M350.558 240.162C347.659 240.162 345.307 237.811 345.307 234.913C345.307 232.013 347.659 229.663 350.558 229.663C353.457 229.663 355.807 232.013 355.807 234.913C355.807 237.811 353.457 240.162 350.558 240.162ZM362.58 234.913C362.58 233.959 362.465 233.032 362.254 232.141L365.03 230.539L361.584 224.567L358.805 226.173C357.459 224.903 355.825 223.939 354.003 223.395V220.192H347.111V223.395C345.293 223.939 343.655 224.903 342.31 226.173L339.533 224.567L336.084 230.539L338.861 232.141C338.652 233.032 338.537 233.959 338.537 234.913C338.537 235.869 338.652 236.796 338.861 237.687L336.084 239.289L339.533 245.26L342.31 243.655C343.655 244.925 345.293 245.887 347.111 246.43V249.636H354.003V246.43C355.825 245.887 357.459 244.925 358.805 243.655L361.584 245.26L365.03 239.289L362.254 237.687C362.465 236.796 362.58 235.869 362.58 234.913V234.913Z" fill="#F2F0FF"></path><path fill-rule="evenodd" clip-rule="evenodd" d="M350.558 230.274C348 230.274 345.918 232.354 345.918 234.913C345.918 237.471 348 239.551 350.558 239.551C353.115 239.551 355.196 237.471 355.196 234.913C355.196 232.354 353.115 230.274 350.558 230.274ZM350.558 240.772C347.327 240.772 344.698 238.144 344.698 234.913C344.698 231.683 347.327 229.053 350.558 229.053C353.788 229.053 356.417 231.683 356.417 234.913C356.417 238.144 353.788 240.772 350.558 240.772ZM347.721 249.026H353.394V245.975L353.829 245.846C355.518 245.342 357.094 244.431 358.385 243.211L358.716 242.899L361.361 244.426L364.196 239.513L361.557 237.988L361.661 237.547C361.866 236.679 361.97 235.792 361.97 234.913C361.97 234.036 361.866 233.149 361.661 232.281L361.557 231.839L364.196 230.315L361.361 225.402L358.716 226.928L358.385 226.616C357.094 225.397 355.518 224.484 353.829 223.979L353.394 223.848V220.802H347.721V223.848L347.286 223.979C345.594 224.486 344.019 225.399 342.729 226.616L342.398 226.928L339.755 225.402L336.918 230.315L339.561 231.839L339.456 232.281C339.251 233.149 339.147 234.036 339.147 234.913C339.147 235.792 339.251 236.679 339.456 237.547L339.561 237.988L336.918 239.513L339.755 244.426L342.398 242.899L342.729 243.211C344.019 244.429 345.594 245.341 347.285 245.846L347.721 245.975V249.026ZM354.614 250.245H346.5V246.876C344.938 246.345 343.476 245.5 342.229 244.406L339.309 246.093L335.251 239.065L338.171 237.381C338.009 236.564 337.926 235.736 337.926 234.913C337.926 234.092 338.009 233.263 338.171 232.447L335.251 230.761L339.309 223.733L342.229 225.421C343.476 224.328 344.936 223.482 346.5 222.95V219.582H354.614V222.95C356.176 223.48 357.639 224.327 358.886 225.421L361.808 223.733L365.863 230.761L362.945 232.447C363.108 233.263 363.189 234.092 363.189 234.913C363.189 235.736 363.108 236.565 362.945 237.381L365.863 239.065L361.808 246.093L358.886 244.406C357.639 245.501 356.176 246.346 354.614 246.876V250.245V250.245Z" fill="#DDD6FF"></path><path fill-rule="evenodd" clip-rule="evenodd" d="M260.132 134.414L258.918 134.298C258.991 133.541 259.077 132.775 259.176 132.021L260.386 132.181C260.289 132.921 260.204 133.666 260.132 134.414" fill="#B3A4F5"></path><path fill-rule="evenodd" clip-rule="evenodd" d="M290.391 205.913C284.317 202.846 278.694 198.944 273.676 194.314L286.09 180.863C289.859 184.341 294.082 187.273 298.64 189.576L290.391 205.913" fill="#DDD6FF"></path><path fill-rule="evenodd" clip-rule="evenodd" d="M323.292 213.73C312.952 213.73 302.947 211.605 293.555 207.417L301.011 190.701C308.041 193.837 315.537 195.427 323.292 195.427C338.998 195.427 353.996 188.649 364.44 176.832L378.155 188.953C364.238 204.699 344.241 213.73 323.292 213.73" fill="#F2F0FF"></path><path fill-rule="evenodd" clip-rule="evenodd" d="M382.529 183.501L367.727 172.736C368.095 172.23 368.455 171.718 368.805 171.199L383.969 181.449C383.505 182.136 383.021 182.826 382.529 183.501" fill="#F2F0FF"></path><path fill-rule="evenodd" clip-rule="evenodd" d="M392.56 164.237L375.25 158.294C376.101 155.812 376.779 153.243 377.262 150.66L395.253 154.032C394.606 157.484 393.7 160.918 392.56 164.237" fill="#E9E6FF"></path><path fill-rule="evenodd" clip-rule="evenodd" d="M396.16 147.643L377.943 145.874C378.113 144.106 378.2 142.305 378.2 140.517C378.2 110.24 353.569 85.6092 323.292 85.6092C315.973 85.6092 308.865 87.0312 302.165 89.8352L295.098 72.9512C304.047 69.2052 313.533 67.3062 323.292 67.3062C363.661 67.3062 396.503 100.148 396.503 140.517C396.503 142.893 396.389 145.29 396.16 147.643" fill="#F2F0FF"></path><path fill-rule="evenodd" clip-rule="evenodd" d="M282.344 103.978L268.695 91.7851C274.67 85.0961 281.724 79.6151 289.66 75.4961L298.093 91.7411C292.134 94.8341 286.835 98.9511 282.344 103.978" fill="#F2F0FF"></path><path fill-rule="evenodd" clip-rule="evenodd" d="M266.157 186.252C255.79 173.324 250.08 157.082 250.08 140.517C250.08 128.893 252.737 117.768 257.981 107.449L274.297 115.741C270.374 123.465 268.383 131.802 268.383 140.517C268.383 153.114 272.551 164.969 280.436 174.803L266.157 186.252" fill="#F2F0FF"></path><path fill-rule="evenodd" clip-rule="evenodd" d="M323.292 205.189V203.968C358.279 203.968 386.743 175.504 386.743 140.517C386.743 135.47 386.145 130.443 384.966 125.578L386.153 125.29C387.354 130.25 387.962 135.373 387.962 140.517C387.962 176.177 358.952 205.189 323.292 205.189" fill="#B3A4F5"></path><path fill-rule="evenodd" clip-rule="evenodd" d="M383.332 119.978C383.171 119.51 383.006 119.046 382.834 118.583L383.979 118.16C384.153 118.632 384.323 119.105 384.486 119.582L383.332 119.978" fill="#B3A4F5"></path><path fill-rule="evenodd" clip-rule="evenodd" d="M262.152 123.526L260.975 123.199C268.733 95.3192 294.359 75.8472 323.292 75.8472C344.867 75.8472 364.955 86.5832 377.025 104.566L376.012 105.246C364.169 87.6022 344.461 77.0672 323.292 77.0672C294.905 77.0672 269.763 96.1722 262.152 123.526" fill="#B3A4F5"></path><path fill-rule="evenodd" clip-rule="evenodd" d="M305.998 202.84C281.955 196.16 263.718 175.971 259.537 151.403L260.74 151.198C264.843 175.302 282.736 195.112 306.323 201.664L305.998 202.84" fill="#B3A4F5"></path><path fill-rule="evenodd" clip-rule="evenodd" d="M373.93 140.517C373.93 168.484 351.259 191.156 323.292 191.156C295.324 191.156 272.653 168.484 272.653 140.517C272.653 112.551 295.324 89.8789 323.292 89.8789C351.259 89.8789 373.93 112.551 373.93 140.517" fill="#F8F7FF"></path><path fill-rule="evenodd" clip-rule="evenodd" d="M289.285 170.329H300.237V149.202H289.285V170.329Z" fill="#CCC2FF"></path><path fill-rule="evenodd" clip-rule="evenodd" d="M302.635 170.329H313.587V128.67H302.635V170.329Z" fill="#CCC2FF"></path><path fill-rule="evenodd" clip-rule="evenodd" d="M302.635 152.343H313.587V146.062H302.635V152.343Z" fill="#FFB0BF"></path><path fill-rule="evenodd" clip-rule="evenodd" d="M302.635 146.062H313.587V142.921H302.635V146.062Z" fill="#FFD4CC"></path><path fill-rule="evenodd" clip-rule="evenodd" d="M315.985 170.329H326.938V134.355H315.985V170.329Z" fill="#CCC2FF"></path><path fill-rule="evenodd" clip-rule="evenodd" d="M329.336 170.329H340.288V104.604H329.336V170.329Z" fill="#CCC2FF"></path><path fill-rule="evenodd" clip-rule="evenodd" d="M342.687 170.33H353.639V115.785H342.687V170.33Z" fill="#CCC2FF"></path><path fill-rule="evenodd" clip-rule="evenodd" d="M315.985 152.342H326.938V149.202H315.985V152.342Z" fill="#FFB0BF"></path><path fill-rule="evenodd" clip-rule="evenodd" d="M289.285 158.627H300.237V155.487H289.285V158.627Z" fill="#FFB0BF"></path><path fill-rule="evenodd" clip-rule="evenodd" d="M289.285 155.487H300.237V152.346H289.285V155.487Z" fill="#FFD4CC"></path><path fill-rule="evenodd" clip-rule="evenodd" d="M315.985 149.203H326.938V146.062H315.985V149.203Z" fill="#FFD4CC"></path><path fill-rule="evenodd" clip-rule="evenodd" d="M329.336 152.342H340.288V139.792H329.336V152.342Z" fill="#FFB0BF"></path><path fill-rule="evenodd" clip-rule="evenodd" d="M329.336 139.792H340.288V134.355H329.336V139.792Z" fill="#FFD4CC"></path><path fill-rule="evenodd" clip-rule="evenodd" d="M342.687 143.618H353.639V123.04H342.687V143.618Z" fill="#FFD4CC"></path><path fill-rule="evenodd" clip-rule="evenodd" d="M302.635 158.627H313.587V152.346H302.635V158.627Z" fill="#B3A4F5"></path><path fill-rule="evenodd" clip-rule="evenodd" d="M289.285 161.767H300.237V158.627H289.285V161.767Z" fill="#B3A4F5"></path><path fill-rule="evenodd" clip-rule="evenodd" d="M329.336 155.487H340.288V152.346H329.336V155.487Z" fill="#B3A4F5"></path><path fill-rule="evenodd" clip-rule="evenodd" d="M315.985 164.786H326.938V152.346H315.985V164.786Z" fill="#B3A4F5"></path><path fill-rule="evenodd" clip-rule="evenodd" d="M342.687 152.374H353.639V146.625H342.687V152.374Z" fill="#B3A4F5"></path><path fill-rule="evenodd" clip-rule="evenodd" d="M342.687 146.626H353.639V143.485H342.687V146.626Z" fill="#FFB0BF"></path><path fill-rule="evenodd" clip-rule="evenodd" d="M53.178 216.335H119.169V150.343H53.178V216.335Z" fill="#F2F0FF"></path><path fill-rule="evenodd" clip-rule="evenodd" d="M53.179 188.564C51.35 188.564 49.863 190.051 49.863 191.88C49.863 193.707 51.35 195.194 53.179 195.194C55.007 195.194 56.493 193.707 56.493 191.88C56.493 190.051 55.007 188.564 53.179 188.564ZM53.179 196.415C50.677 196.415 48.643 194.38 48.643 191.88C48.643 189.378 50.677 187.344 53.179 187.344C55.679 187.344 57.714 189.378 57.714 191.88C57.714 194.38 55.679 196.415 53.179 196.415ZM51.211 202.279H55.145V200.037L55.581 199.907C56.821 199.538 57.978 198.87 58.927 197.973L59.257 197.661L61.201 198.782L63.168 195.375L61.228 194.255L61.332 193.813C61.482 193.176 61.559 192.525 61.559 191.88C61.559 191.235 61.482 190.584 61.332 189.947L61.228 189.505L63.168 188.385L61.201 184.976L59.257 186.1L58.927 185.787C57.978 184.892 56.821 184.222 55.581 183.851L55.145 183.72V181.481H51.211V183.72L50.776 183.851C49.535 184.222 48.378 184.892 47.43 185.787L47.099 186.1L45.157 184.976L43.189 188.385L45.13 189.505L45.026 189.947C44.876 190.584 44.799 191.235 44.799 191.88C44.799 192.525 44.876 193.176 45.026 193.813L45.13 194.255L43.189 195.375L45.157 198.782L47.099 197.661L47.43 197.973C48.378 198.868 49.534 199.536 50.775 199.907L51.211 200.037V202.279ZM56.366 203.499H49.991V200.935C48.877 200.542 47.833 199.938 46.932 199.167L44.71 200.451L41.522 194.929L43.744 193.647C43.635 193.062 43.579 192.469 43.579 191.88C43.579 191.291 43.635 190.699 43.744 190.113L41.521 188.831L44.71 183.31L46.932 184.593C47.833 183.821 48.877 183.218 49.991 182.824V180.261H56.366V182.823C57.479 183.217 58.522 183.821 59.424 184.593L61.648 183.31L64.834 188.831L62.614 190.113C62.723 190.699 62.779 191.291 62.779 191.88C62.779 192.469 62.723 193.062 62.614 193.647L64.834 194.929L61.648 200.451L59.424 199.167C58.522 199.94 57.479 200.542 56.366 200.935V203.499V203.499Z" fill="#DDD6FF"></path><path fill-rule="evenodd" clip-rule="evenodd" d="M119.17 167.981C109.427 167.981 101.526 160.086 101.526 150.343C101.526 140.599 109.427 132.705 119.17 132.705C128.913 132.705 136.808 140.599 136.808 150.343C136.808 160.086 128.913 167.981 119.17 167.981ZM119.17 113.096C98.597 113.096 81.923 129.77 81.923 150.343C81.923 170.916 98.597 187.589 119.17 187.589C139.743 187.589 156.417 170.916 156.417 150.343C156.417 129.77 139.743 113.096 119.17 113.096V113.096Z" fill="white"></path><path fill-rule="evenodd" clip-rule="evenodd" d="M101.748 141.003L88.315 133.779C94.434 122.399 106.257 115.329 119.169 115.329V130.582C111.88 130.582 105.205 134.575 101.748 141.003" fill="#CCC2FF"></path><path fill-rule="evenodd" clip-rule="evenodd" d="M101.247 142.002L87.424 135.555C87.701 134.961 88 134.365 88.314 133.782L101.75 141C101.572 141.332 101.403 141.668 101.247 142.002" fill="white"></path><path fill-rule="evenodd" clip-rule="evenodd" d="M85.747 160.804C84.691 157.428 84.155 153.908 84.155 150.343C84.155 145.181 85.255 140.205 87.424 135.555L101.247 142.002C100.027 144.619 99.408 147.425 99.408 150.343C99.408 152.362 99.709 154.349 100.304 156.25L85.747 160.804" fill="#DDD6FF"></path><path fill-rule="evenodd" clip-rule="evenodd" d="M90.199 170.012C88.267 167.172 86.769 164.073 85.747 160.803L100.304 156.251C100.879 158.09 101.723 159.835 102.811 161.435L90.199 170.012" fill="white"></path><path fill-rule="evenodd" clip-rule="evenodd" d="M110.799 184.349C102.398 182.286 95.082 177.194 90.199 170.012L102.812 161.436C105.573 165.497 109.701 168.373 114.435 169.536L110.799 184.349" fill="#CCC2FF"></path><path fill-rule="evenodd" clip-rule="evenodd" d="M119.169 185.357C116.34 185.357 113.524 185.017 110.799 184.349L114.435 169.536C115.972 169.913 117.564 170.104 119.169 170.104C125.599 170.104 131.649 166.958 135.353 161.688L147.832 170.458C141.275 179.787 130.56 185.357 119.169 185.357" fill="#B3A4F5"></path><path fill-rule="evenodd" clip-rule="evenodd" d="M147.832 170.457L135.352 161.689C135.542 161.419 135.725 161.145 135.901 160.865L148.802 169C148.494 169.49 148.167 169.98 147.832 170.457" fill="white"></path><path fill-rule="evenodd" clip-rule="evenodd" d="M148.804 169L135.901 160.866C136.212 160.371 136.505 159.857 136.771 159.339L150.344 166.298C149.872 167.216 149.354 168.125 148.804 169" fill="white"></path><path fill-rule="evenodd" clip-rule="evenodd" d="M150.344 166.296L136.771 159.34C138.204 156.543 138.931 153.516 138.931 150.343H154.184C154.184 155.879 152.855 161.396 150.344 166.296" fill="#CCC2FF"></path><path fill-rule="evenodd" clip-rule="evenodd" d="M154.184 150.343H138.931C138.931 141.906 133.576 134.395 125.606 131.651L130.57 117.229C144.694 122.091 154.184 135.398 154.184 150.343" fill="#FFD4CC"></path><path fill-rule="evenodd" clip-rule="evenodd" d="M125.606 131.651C123.544 130.941 121.378 130.582 119.169 130.582V115.329C123.071 115.329 126.907 115.968 130.57 117.229L125.606 131.651" fill="white"></path><path fill-rule="evenodd" clip-rule="evenodd" d="M83.358 199.214L77.401 207.554H89.315L83.358 199.214" fill="#CCC2FF"></path><path fill-rule="evenodd" clip-rule="evenodd" d="M103.441 234.044L109.398 225.704H97.484L103.441 234.044" fill="#FFCCD6"></path><path fill-rule="evenodd" clip-rule="evenodd" d="M144.682 175.119L143.807 174.27C148.421 169.518 151.545 163.594 152.841 157.137L154.038 157.377C152.695 164.064 149.46 170.2 144.682 175.119" fill="#A292ED"></path><path fill-rule="evenodd" clip-rule="evenodd" d="M152.577 142.349C152.373 141.486 152.13 140.62 151.856 139.774L153.017 139.399C153.3 140.275 153.552 141.172 153.764 142.067L152.577 142.349" fill="#A292ED"></path><path fill-rule="evenodd" clip-rule="evenodd" d="M149.911 135.013C144.05 123.285 132.271 116 119.17 116C112.958 116 106.871 117.677 101.568 120.848L100.942 119.801C106.434 116.516 112.737 114.78 119.17 114.78C132.737 114.78 144.934 122.324 151.002 134.467L149.911 135.013" fill="#A292ED"></path><path fill-rule="evenodd" clip-rule="evenodd" d="M119.17 185.905C99.56 185.905 83.607 169.952 83.607 150.343C83.607 142.23 86.267 134.591 91.3 128.25L92.256 129.009C87.396 135.132 84.827 142.508 84.827 150.343C84.827 169.279 100.234 184.686 119.17 184.686C128.532 184.686 137.282 180.986 143.807 174.269L144.682 175.12C137.925 182.075 128.865 185.905 119.17 185.905" fill="#A292ED"></path><path fill-rule="evenodd" clip-rule="evenodd" d="M66.628 247.811H91.782V243.998H66.628V247.811Z" fill="#F0EDFF"></path><path fill-rule="evenodd" clip-rule="evenodd" d="M74.712 267.03H91.782V263.217H74.712V267.03Z" fill="#F0EDFF"></path><path fill-rule="evenodd" clip-rule="evenodd" d="M53.178 235H91.782V231.185H53.178V235Z" fill="#F8F7FF"></path><path fill-rule="evenodd" clip-rule="evenodd" d="M47.105 241.405H91.782V237.592H47.105V241.405Z" fill="#F8F7FF"></path><path fill-rule="evenodd" clip-rule="evenodd" d="M59.02 254.217H91.781V250.404H59.02V254.217Z" fill="#F8F7FF"></path><path fill-rule="evenodd" clip-rule="evenodd" d="M34.445 260.624H91.781V256.811H34.445V260.624Z" fill="#F8F7FF"></path><path fill-rule="evenodd" clip-rule="evenodd" d="M83.358 273.437H91.782V269.622H83.358V273.437Z" fill="#F8F7FF"></path><path fill-rule="evenodd" clip-rule="evenodd" d="M92.34 144.32L69.319 134.543H47.715V133.323H69.567L69.682 133.372L92.817 143.197L92.34 144.32" fill="#CCC2FF"></path><path fill-rule="evenodd" clip-rule="evenodd" d="M40.851 134.543H44.817V133.323H40.851V134.543Z" fill="#CCC2FF"></path><path fill-rule="evenodd" clip-rule="evenodd" d="M47.715 130.501H64.001V129.281H47.715V130.501Z" fill="#CCC2FF"></path><path fill-rule="evenodd" clip-rule="evenodd" d="M34.445 126.46H58.086V125.24H34.445V126.46Z" fill="#CCC2FF"></path><path fill-rule="evenodd" clip-rule="evenodd" d="M47.715 122.418H58.087V121.198H47.715V122.418Z" fill="#CCC2FF"></path><path fill-rule="evenodd" clip-rule="evenodd" d="M176.659 255.494H176.658L155.525 239.015C156.402 252.52 165.852 258.399 176.181 258.812C176.699 257.991 177.248 257.189 177.827 256.404L176.659 255.494" fill="#40327A"></path><path fill-rule="evenodd" clip-rule="evenodd" d="M183.803 251.534V251.534L175.73 219.453L160.904 229.863L181.188 250.392L183.044 252.271C183.297 252.025 183.543 251.773 183.803 251.534" fill="#40327A"></path><path fill-rule="evenodd" clip-rule="evenodd" d="M173.56 200.931C173.743 200.764 173.931 200.605 174.133 200.454C175.515 199.417 177.128 198.908 178.733 198.877C178.786 198.875 178.839 198.868 178.89 198.868H189.301V180.475L188.814 180.572C187.162 180.901 185.556 179.827 185.227 178.175C184.899 176.523 185.972 174.917 187.624 174.588L188.224 174.469C192.199 173.679 195.809 171.613 198.504 168.585C201.401 165.332 205.122 162.949 209.252 161.666L213.332 177.124C214.787 182.636 211.291 188.233 205.699 189.345L202.724 189.937V198.868H206.304C206.306 198.868 206.306 198.868 206.307 198.868H206.309C206.365 198.868 206.419 198.875 206.475 198.877C206.639 198.88 206.802 198.887 206.965 198.902C207.021 198.906 207.079 198.905 207.135 198.911C207.185 198.917 207.235 198.928 207.285 198.934C207.285 198.934 207.285 198.934 207.286 198.934C207.431 198.952 207.577 198.974 207.721 199C207.793 199.014 207.867 199.022 207.937 199.037C207.993 199.048 208.046 199.065 208.101 199.079C208.219 199.106 208.336 199.136 208.456 199.17C208.539 199.193 208.626 199.214 208.712 199.24C208.772 199.26 208.83 199.285 208.89 199.305C208.987 199.339 209.083 199.375 209.178 199.411C209.27 199.447 209.362 199.479 209.452 199.519C209.517 199.547 209.578 199.579 209.641 199.608C209.689 199.632 209.74 199.648 209.787 199.672C209.826 199.691 209.863 199.714 209.903 199.735C209.988 199.779 210.074 199.821 210.158 199.866C210.216 199.9 210.272 199.937 210.33 199.971C210.424 200.027 210.518 200.083 210.61 200.142C210.635 200.158 210.66 200.171 210.685 200.187L210.686 200.184L220.448 206.626C220.461 206.489 220.476 206.358 220.488 206.217C221.208 197.426 214.606 196.969 215.404 188.184C215.586 186.186 217.593 183.006 218.216 181.791C218.216 181.791 218.216 181.791 218.223 181.785C218.328 181.574 218.432 181.37 218.531 181.158C219.559 179.004 220.255 176.653 220.561 174.161C222.082 161.733 213.239 150.42 200.805 148.897C188.378 147.374 177.064 156.218 175.542 168.646C175.237 171.138 175.345 173.588 175.823 175.926C175.867 176.155 175.917 176.392 175.975 176.623C176.287 177.946 177.496 181.329 177.162 183.5C175.817 192.217 169.292 191.066 167.869 199.771C167.42 202.524 167.498 204.486 167.782 206.161L173.559 200.928L173.56 200.931" fill="#40327A"></path><path fill-rule="evenodd" clip-rule="evenodd" d="M212.175 251.534H212.173C212.799 252.795 213.344 254.092 213.811 255.415C216.61 253.157 218.338 249.824 218.338 245.301C218.338 241.496 216.286 238.716 215.243 234.801C215.145 234.432 215.022 233.996 214.894 233.529C214.282 233.825 213.638 234.05 212.976 234.204L212.175 251.534" fill="#40327A"></path><path fill-rule="evenodd" clip-rule="evenodd" d="M214.176 232.522C214.233 232.497 214.288 232.469 214.344 232.441C214.288 232.469 214.233 232.497 214.176 232.522" fill="#40327A"></path><path fill-rule="evenodd" clip-rule="evenodd" d="M213.503 232.789C213.573 232.764 213.644 232.739 213.713 232.712C213.644 232.739 213.573 232.764 213.503 232.789" fill="#40327A"></path><path fill-rule="evenodd" clip-rule="evenodd" d="M213.035 232.934V232.934C213.042 232.933 213.048 232.93 213.054 232.928C213.048 232.93 213.042 232.931 213.035 232.934" fill="#40327A"></path><path fill-rule="evenodd" clip-rule="evenodd" d="M209.982 199.779C210.041 199.81 210.102 199.835 210.158 199.866C210.074 199.821 209.988 199.779 209.903 199.735C209.929 199.749 209.956 199.765 209.982 199.779" fill="#FF95A9"></path><path fill-rule="evenodd" clip-rule="evenodd" d="M210.682 200.191L210.685 200.187C210.66 200.171 210.635 200.158 210.61 200.142C210.635 200.158 210.658 200.175 210.682 200.191" fill="#FF95A9"></path><path fill-rule="evenodd" clip-rule="evenodd" d="M207.765 199.009C207.822 199.02 207.881 199.025 207.937 199.037C207.867 199.022 207.793 199.014 207.721 199C207.736 199.003 207.75 199.006 207.765 199.009" fill="#FF95A9"></path><path fill-rule="evenodd" clip-rule="evenodd" d="M209.243 199.439C209.312 199.467 209.385 199.489 209.452 199.519C209.362 199.479 209.27 199.447 209.178 199.411C209.201 199.42 209.221 199.43 209.243 199.439" fill="#FF95A9"></path><path fill-rule="evenodd" clip-rule="evenodd" d="M206.989 198.903C207.038 198.908 207.086 198.906 207.135 198.911C207.079 198.905 207.021 198.906 206.965 198.902C206.974 198.902 206.982 198.903 206.989 198.903" fill="#FF95A9"></path><path fill-rule="evenodd" clip-rule="evenodd" d="M208.511 199.187C208.578 199.207 208.645 199.22 208.712 199.24C208.626 199.214 208.539 199.193 208.456 199.17C208.473 199.176 208.492 199.182 208.511 199.187" fill="#FF95A9"></path><path fill-rule="evenodd" clip-rule="evenodd" d="M206.307 198.868C206.36 198.868 206.412 198.875 206.465 198.877C206.468 198.877 206.472 198.877 206.475 198.877C206.419 198.875 206.365 198.868 206.309 198.868H206.307" fill="#FF95A9"></path><path fill-rule="evenodd" clip-rule="evenodd" d="M229.843 222.098V222.098L241.184 224.022L229.843 222.098" fill="#FF95A9"></path><path fill-rule="evenodd" clip-rule="evenodd" d="M171.206 277.064C171.235 276.744 171.269 276.426 171.306 276.107C171.334 275.866 171.366 275.625 171.4 275.385C172.116 270.112 173.878 265.059 176.565 260.512C176.592 260.468 176.618 260.425 176.643 260.381C177.304 259.274 178.018 258.196 178.787 257.154L177.827 256.404C177.248 257.189 176.699 257.991 176.181 258.812C172.054 265.349 169.807 272.995 169.807 280.723H171.026C171.026 280.102 171.045 279.482 171.075 278.864C171.087 278.621 171.106 278.378 171.122 278.135C171.145 277.777 171.172 277.421 171.206 277.064" fill="white"></path><path fill-rule="evenodd" clip-rule="evenodd" d="M199.627 251.534H183.803C183.543 251.773 183.297 252.025 183.044 252.271L184.344 253.587L190.469 253.879C192.825 253.991 194.643 255.992 194.533 258.348C194.421 260.704 192.42 262.523 190.064 262.412C189.578 262.388 189.119 262.28 188.69 262.111V262.115L181.885 259.415L181.888 259.4C181.618 259.294 181.367 259.157 181.141 258.982L181.138 258.987L178.787 257.154C178.018 258.196 177.304 259.274 176.643 260.381C176.618 260.425 176.592 260.468 176.565 260.512C173.878 265.059 172.116 270.112 171.4 275.385C171.368 275.625 171.334 275.866 171.306 276.107C171.269 276.426 171.235 276.744 171.206 277.064C171.172 277.421 171.144 277.777 171.122 278.135C171.106 278.378 171.087 278.621 171.075 278.864C171.047 279.482 171.026 280.102 171.026 280.723V284.047C171.026 284.047 177.935 284.047 182.652 284.047H207.291C212.008 284.047 215.832 280.223 215.832 275.505V267.149C215.832 263.14 215.142 259.174 213.811 255.415C213.344 254.092 212.799 252.795 212.173 251.534H199.627" fill="#7760DB"></path><path fill-rule="evenodd" clip-rule="evenodd" d="M178.787 257.154L181.138 258.987L181.141 258.982C181.367 259.157 181.618 259.294 181.888 259.4L181.885 259.415L188.69 262.115V262.111C189.119 262.28 189.578 262.388 190.064 262.412C192.42 262.523 194.421 260.704 194.533 258.348C194.643 255.992 192.825 253.991 190.469 253.879L184.344 253.587L181.188 250.392L176.659 255.494L177.827 256.404L178.787 257.154" fill="#FF95A9"></path><path fill-rule="evenodd" clip-rule="evenodd" d="M238.186 186.771L231.737 214.073L210.686 200.184L210.685 200.187L210.682 200.191C210.658 200.175 210.635 200.158 210.61 200.142C210.518 200.083 210.424 200.027 210.33 199.971C210.272 199.937 210.216 199.9 210.158 199.866C210.102 199.835 210.041 199.81 209.982 199.779C209.956 199.765 209.929 199.749 209.903 199.735C209.863 199.714 209.826 199.691 209.787 199.672C209.74 199.648 209.689 199.632 209.641 199.608C209.578 199.579 209.517 199.547 209.452 199.519C209.385 199.489 209.312 199.467 209.243 199.439C209.221 199.43 209.201 199.42 209.178 199.411C209.083 199.375 208.987 199.339 208.89 199.305C208.83 199.285 208.772 199.26 208.712 199.24C208.645 199.22 208.578 199.207 208.511 199.187C208.492 199.182 208.473 199.176 208.456 199.17C208.336 199.136 208.219 199.106 208.101 199.079C208.046 199.065 207.993 199.048 207.937 199.037C207.881 199.025 207.822 199.02 207.765 199.009C207.75 199.006 207.736 199.003 207.721 199C207.577 198.974 207.431 198.952 207.286 198.934C207.285 198.934 207.285 198.934 207.285 198.934C207.235 198.928 207.185 198.917 207.135 198.911C207.086 198.906 207.038 198.908 206.989 198.903C206.982 198.903 206.974 198.902 206.965 198.902C206.802 198.887 206.639 198.88 206.475 198.877C206.472 198.877 206.468 198.877 206.465 198.877C206.412 198.875 206.36 198.868 206.307 198.868C206.306 198.868 206.306 198.868 206.304 198.868H204.723V212.982L183.204 198.868H178.89C178.839 198.868 178.786 198.875 178.733 198.877C177.128 198.908 175.515 199.417 174.133 200.454C173.931 200.605 173.743 200.764 173.56 200.931L173.559 200.928L147.708 224.349L147.712 224.355C147.649 224.412 147.584 224.464 147.524 224.524C145.26 226.761 145.238 230.411 147.475 232.674C147.654 232.855 147.844 233.017 148.039 233.168L148.033 233.174L176.658 255.494H176.659L181.188 250.392L160.904 229.863L160.818 229.923L160.117 228.924L177.293 216.866L177.994 217.865L175.73 219.453L183.803 251.534H212.175L212.976 234.204C212.409 234.336 211.829 234.413 211.243 234.433V234.448H206.309V233.229H210.919V233.228C210.936 233.228 210.954 233.226 210.973 233.226C211.202 233.224 211.43 233.213 211.656 233.191C211.774 233.18 211.888 233.161 212.004 233.145C212.126 233.129 212.248 233.113 212.369 233.089C212.51 233.064 212.649 233.032 212.787 232.998C212.87 232.977 212.952 232.958 213.035 232.934C213.042 232.931 213.048 232.93 213.054 232.928C213.205 232.886 213.356 232.84 213.503 232.789C213.573 232.764 213.644 232.739 213.713 232.712C213.87 232.653 214.026 232.591 214.176 232.522C214.233 232.497 214.288 232.469 214.344 232.441C214.503 232.365 214.662 232.287 214.815 232.201C214.852 232.179 214.888 232.156 214.925 232.133C215.289 231.92 215.639 231.684 215.962 231.418C217.726 229.963 218.849 227.762 218.849 225.297C218.849 223.785 218.419 222.377 217.684 221.174L232.924 228.61L232.927 228.605C233.518 228.894 234.166 229.091 234.858 229.164C238.025 229.49 240.857 227.188 241.184 224.022L229.843 222.098L241.184 224.022H241.185L244.913 187.913H244.912L238.187 186.771H238.186" fill="#FFD259"></path><path fill-rule="evenodd" clip-rule="evenodd" d="M205.553 182.993C203.735 183.354 201.968 182.173 201.609 180.355L208.192 179.049C208.553 180.866 207.37 182.633 205.553 182.993ZM202.724 189.937L205.699 189.345C211.291 188.233 214.787 182.636 213.332 177.124L209.252 161.666C205.122 162.949 201.401 165.332 198.504 168.585C195.809 171.613 192.199 173.679 188.224 174.469L187.624 174.588C185.972 174.917 184.899 176.523 185.227 178.175C185.556 179.827 187.162 180.901 188.814 180.572L189.301 180.475V198.868H183.204L204.723 212.982V198.868H202.724V189.937V189.937Z" fill="#FF95A9"></path><path fill-rule="evenodd" clip-rule="evenodd" d="M201.609 180.355C201.968 182.173 203.735 183.354 205.553 182.993C207.37 182.633 208.553 180.866 208.192 179.049L201.609 180.355" fill="white"></path><path fill-rule="evenodd" clip-rule="evenodd" d="M248.376 178.271C250.651 174.849 248.198 170.271 244.089 170.271H242.74V162.938C242.74 162.095 242.057 161.413 241.215 161.413C240.372 161.413 239.689 162.095 239.689 162.938V180.414L238.187 186.771L244.912 187.913L245.453 182.665L248.376 178.271" fill="#FF95A9"></path><path fill-rule="evenodd" clip-rule="evenodd" d="M214.815 232.201C214.662 232.287 214.503 232.365 214.344 232.441C214.288 232.469 214.233 232.497 214.176 232.522C214.026 232.591 213.87 232.653 213.713 232.712C213.644 232.739 213.573 232.764 213.503 232.789C213.356 232.84 213.205 232.886 213.054 232.928C213.048 232.93 213.042 232.933 213.035 232.934C212.952 232.958 212.87 232.977 212.787 232.998C212.649 233.032 212.51 233.064 212.369 233.089C212.248 233.113 212.126 233.129 212.004 233.145C211.888 233.161 211.774 233.18 211.656 233.191C211.43 233.213 211.202 233.224 210.973 233.226C210.954 233.226 210.936 233.228 210.919 233.228V233.229H206.309V234.448H211.243V234.433C211.829 234.413 212.409 234.336 212.976 234.204C213.638 234.05 214.282 233.825 214.894 233.529C215.549 233.213 216.171 232.824 216.736 232.356L215.962 231.418C215.639 231.684 215.289 231.92 214.925 232.133C214.888 232.156 214.852 232.179 214.815 232.201" fill="white"></path><path fill-rule="evenodd" clip-rule="evenodd" d="M177.994 217.865L177.293 216.866L160.117 228.924L160.818 229.923L160.904 229.863L177.994 217.865" fill="white"></path><path fill-rule="evenodd" clip-rule="evenodd" d="M196.22 280.388H244.719V277.209H196.22V280.388Z" fill="#40327A"></path><path fill-rule="evenodd" clip-rule="evenodd" d="M308.677 232.443L301.027 269.569L300.971 269.843L298.801 280.391H231.027L240.904 232.443H308.677" fill="white"></path><path fill-rule="evenodd" clip-rule="evenodd" d="M311.063 232.443L303.412 269.569L303.356 269.843L301.186 280.391H233.988L243.865 232.443H311.063" fill="#B3A4F5"></path><path fill-rule="evenodd" clip-rule="evenodd" d="M295.164 280.391H233.988L303.412 269.569L303.356 269.843L301.186 280.391H295.164" fill="#DDD6FF"></path><path fill-rule="evenodd" clip-rule="evenodd" d="M277.425 256.413C276.867 259.119 274.222 261.313 271.516 261.313C268.81 261.313 267.068 259.119 267.625 256.413C268.183 253.707 270.828 251.513 273.535 251.513C276.241 251.513 277.983 253.707 277.425 256.413" fill="white"></path><path fill-rule="evenodd" clip-rule="evenodd" d="M292.83 280.391H52.384V286.492H397.1V280.391H292.83" fill="#B3A4F5"></path><path fill-rule="evenodd" clip-rule="evenodd" d="M123.08 287.101H232.625V285.881H123.08V287.101Z" fill="#40327A"></path><path fill-rule="evenodd" clip-rule="evenodd" d="M79.707 287.101H108.106V285.881H79.707V287.101Z" fill="#40327A"></path><path fill-rule="evenodd" clip-rule="evenodd" d="M113.102 287.101H117.659V285.881H113.102V287.101Z" fill="#40327A"></path><path fill-rule="evenodd" clip-rule="evenodd" d="M264.647 287.101H339.051V285.881H264.647V287.101Z" fill="#40327A"></path><path fill-rule="evenodd" clip-rule="evenodd" d="M297.006 299.157H415.403V293.055H297.006V299.157Z" fill="#F2F0FF"></path><path fill-rule="evenodd" clip-rule="evenodd" d="M277.942 299.157H291.673V293.055H277.942V299.157Z" fill="#E9E6FF"></path><path fill-rule="evenodd" clip-rule="evenodd" d="M87.72 308.309H109.699V305.258H87.72V308.309Z" fill="#F2F0FF"></path><path fill-rule="evenodd" clip-rule="evenodd" d="M114.475 308.309H117.657V305.258H114.475V308.309Z" fill="#F2F0FF"></path><path fill-rule="evenodd" clip-rule="evenodd" d="M123.909 308.309H197.084V305.258H123.909V308.309Z" fill="#F2F0FF"></path><path fill-rule="evenodd" clip-rule="evenodd" d="M205.241 308.309H236.632V305.258H205.241V308.309Z" fill="#F2F0FF"></path><path fill-rule="evenodd" clip-rule="evenodd" d="M240.715 308.309H355.341V305.258H240.715V308.309Z" fill="#F2F0FF"></path><path fill-rule="evenodd" clip-rule="evenodd" d="M362.974 308.309H366.537V305.258H362.974V308.309Z" fill="#F2F0FF"></path><path fill-rule="evenodd" clip-rule="evenodd" d="M174.636 299.157H274.293V293.055H174.636V299.157Z" fill="#F2F0FF"></path><path fill-rule="evenodd" clip-rule="evenodd" d="M152.074 299.157H169.369V293.055H152.074V299.157Z" fill="#E9E6FF"></path><path fill-rule="evenodd" clip-rule="evenodd" d="M143.415 299.157H148.632V293.055H143.415V299.157Z" fill="#DDD6FF"></path><path fill-rule="evenodd" clip-rule="evenodd" d="M99.193 299.157H140.974V293.055H99.193V299.157Z" fill="#F2F0FF"></path><path fill-rule="evenodd" clip-rule="evenodd" d="M24.938 299.157H93.103V293.055H24.938V299.157Z" fill="#F2F0FF"></path><path fill-rule="evenodd" clip-rule="evenodd" d="M305.136 264.223L303.942 263.977L310.315 233.052H243.865V231.833H311.812L305.136 264.223" fill="#8B77E8"></path><path fill-rule="evenodd" clip-rule="evenodd" d="M303.2 273.631L302.006 273.385L303.077 268.18L304.272 268.426L303.2 273.631" fill="#8B77E8"></path></g></svg>